<svg width="6" height="6" viewBox="0 0 6 6" fill="none" xmlns="http://www.w3.org/2000/svg">
<path d="M2.4345 4.98336C2.4055 4.95511 2.2815 4.84844 2.1795 4.74907C1.538 4.16651 0.488 2.64678 0.1675 1.85136C0.116 1.73056 0.007 1.42515 0 1.26198C0 1.10562 0.036 0.956571 0.109 0.81434C0.211 0.637038 0.3715 0.494808 0.561 0.416873C0.6925 0.366702 1.086 0.288768 1.093 0.288768C1.5235 0.210833 2.223 0.167969 2.996 0.167969C3.7325 0.167969 4.4035 0.210833 4.8405 0.274642C4.8475 0.281948 5.3365 0.359883 5.504 0.445124C5.81 0.601481 6 0.906887 6 1.23373V1.26198C5.9925 1.47484 5.8025 1.92247 5.7955 1.92247C5.4745 2.67503 4.476 4.15969 3.8125 4.75638C3.8125 4.75638 3.642 4.92442 3.5355 4.99749C3.3825 5.11147 3.193 5.16797 3.0035 5.16797C2.792 5.16797 2.595 5.10416 2.4345 4.98336Z" fill="#06152B"/>
</svg>
