<svg width="13" height="14" viewBox="0 0 13 14" fill="none" xmlns="http://www.w3.org/2000/svg">
<path fill-rule="evenodd" clip-rule="evenodd" d="M9.38762 0.538032L9.38831 1.06277C11.3166 1.21389 12.5903 2.52784 12.5924 4.54283L12.6 10.4409C12.6028 12.6378 11.2226 13.9895 9.01026 13.993L3.60632 14C1.40784 14.0028 0.0103716 12.6189 0.00760708 10.4157L4.65482e-06 4.5869C-0.00275986 2.55862 1.22607 1.24818 3.15432 1.07117L3.15363 0.546428C3.15294 0.238582 3.38101 0.00699808 3.68511 0.00699808C3.9892 0.00629843 4.21728 0.237183 4.21797 0.545029L4.21866 1.03478L8.32397 1.02919L8.32328 0.539431C8.32259 0.231586 8.55066 0.000701235 8.85476 1.58584e-06C9.15194 -0.000698064 9.38693 0.230186 9.38762 0.538032ZM1.06514 4.80387L11.5288 4.78988V4.545C11.4991 3.04075 10.7444 2.25155 9.3898 2.13401L9.39049 2.67274C9.39049 2.97359 9.15619 3.21217 8.85901 3.21217C8.55491 3.21287 8.32615 2.97499 8.32615 2.67414L8.32546 2.10742L4.22015 2.11302L4.22084 2.67903C4.22084 2.98058 3.99346 3.21846 3.68936 3.21846C3.38526 3.21916 3.1565 2.98198 3.1565 2.68043L3.15581 2.1417C1.80811 2.27673 1.06238 3.06874 1.06445 4.58628L1.06514 4.80387ZM8.56787 7.98419V7.99189C8.57478 8.31372 8.83741 8.5579 9.15602 8.55091C9.46703 8.54321 9.71514 8.27664 9.70823 7.9548C9.69372 7.64696 9.44422 7.39578 9.1339 7.39648C8.81598 7.40348 8.56717 7.66235 8.56787 7.98419ZM9.13912 11.1237C8.8212 11.1167 8.56479 10.8515 8.5641 10.5297C8.55718 10.2079 8.81221 9.94129 9.13013 9.93359H9.13704C9.46187 9.93359 9.72519 10.1988 9.72519 10.5276C9.72588 10.8564 9.46325 11.123 9.13912 11.1237ZM5.72053 7.995C5.73435 8.31684 5.99767 8.56801 6.31559 8.55402C6.6266 8.53933 6.87471 8.27346 6.86089 7.95162C6.85329 7.63678 6.59757 7.3919 6.28656 7.3926C5.96864 7.40659 5.71984 7.67316 5.72053 7.995ZM6.3182 11.095C6.00028 11.109 5.73765 10.8578 5.72314 10.536C5.72314 10.2142 5.97125 9.94829 6.28917 9.93359C6.60018 9.93289 6.85659 10.1778 6.8635 10.4919C6.87802 10.8145 6.62921 11.0803 6.3182 11.095ZM2.87304 8.02037C2.88686 8.34221 3.15018 8.59408 3.4681 8.57939C3.77911 8.56539 4.02723 8.29883 4.01271 7.97699C4.0058 7.66215 3.75009 7.41727 3.43839 7.41797C3.12047 7.43196 2.87235 7.69853 2.87304 8.02037ZM3.47103 11.095C3.15311 11.1097 2.89049 10.8578 2.87597 10.536C2.87528 10.2142 3.12409 9.94759 3.44201 9.93359C3.75301 9.93289 4.00942 10.1778 4.01634 10.4926C4.03085 10.8145 3.78273 11.081 3.47103 11.095Z" fill="#3A36DB"/>
</svg>
