<svg width="13" height="14" viewBox="0 0 13 14" fill="none" xmlns="http://www.w3.org/2000/svg">
<path fill-rule="evenodd" clip-rule="evenodd" d="M12.101 2.27008C12.3733 2.27008 12.6 2.49618 12.6 2.78387V3.04987C12.6 3.33057 12.3733 3.56366 12.101 3.56366H0.499697C0.226702 3.56366 0 3.33057 0 3.04987V2.78387C0 2.49618 0.226702 2.27008 0.499697 2.27008H2.5407C2.9553 2.27008 3.31611 1.97538 3.40938 1.55958L3.51626 1.08219C3.68238 0.431896 4.22905 0 4.85469 0H7.74531C8.36415 0 8.91694 0.431896 9.07693 1.04789L9.1913 1.55888C9.28389 1.97538 9.64471 2.27008 10.06 2.27008H12.101ZM11.0637 11.9933C11.2768 10.0074 11.6499 5.28949 11.6499 5.24189C11.6635 5.0977 11.6165 4.9612 11.5233 4.8513C11.4232 4.7484 11.2966 4.6875 11.157 4.6875H1.44762C1.30738 4.6875 1.17394 4.7484 1.08136 4.8513C0.987407 4.9612 0.941114 5.0977 0.947922 5.24189C0.949173 5.25064 0.962559 5.41683 0.98494 5.69467C1.08436 6.92894 1.36127 10.3666 1.54021 11.9933C1.66683 13.1917 2.45314 13.9449 3.5921 13.9722C4.47099 13.9925 5.37644 13.9995 6.30231 13.9995C7.1744 13.9995 8.0601 13.9925 8.96623 13.9722C10.1447 13.9519 10.9303 13.212 11.0637 11.9933Z" fill="#FF69B4"/>
</svg>
