<svg width="20" height="20" viewBox="0 0 20 20" fill="none" xmlns="http://www.w3.org/2000/svg">
<path d="M9.2301 5.04265V0.822636C9.2301 0.373926 9.5701 0 10.0001 0C10.3851 0 10.7113 0.314201 10.763 0.71219L10.7701 0.822636V5.04265L15.55 5.04297C17.93 5.04297 19.8853 7.09451 19.9951 9.65306L20 9.88009V15.1846C20 17.7611 18.1127 19.876 15.768 19.9947L15.56 20H4.44C2.06 20 0.11409 17.9587 0.00483778 15.3908L0 15.1629L0 9.86922C0 7.29274 1.87791 5.16759 4.22199 5.04826L4.43 5.04297H9.23V11.7823L7.63 10.0431C7.33 9.71705 6.84 9.71705 6.54 10.0431C6.39 10.2062 6.32 10.4236 6.32 10.641C6.32 10.8062 6.3648 10.9784 6.45952 11.1241L6.54 11.228L9.45 14.402C9.59 14.565 9.79 14.652 10 14.652C10.1667 14.652 10.3333 14.5916 10.4653 14.4771L10.54 14.402L13.45 11.228C13.75 10.9019 13.75 10.3692 13.45 10.0431C13.1773 9.74669 12.7475 9.71974 12.4462 9.96229L12.36 10.0431L10.77 11.7823V5.04297L9.2301 5.04265Z" fill="white"/>
</svg>
