<svg width="14" height="16" viewBox="0 0 14 16" fill="none" xmlns="http://www.w3.org/2000/svg">
<path fill-rule="evenodd" clip-rule="evenodd" d="M0 6.65421C0 2.97431 3.0751 0 6.79476 0C10.5249 0 13.6 2.97431 13.6 6.65421C13.6 8.50855 12.9256 10.2301 11.8156 11.6893C10.591 13.2988 9.08173 14.7012 7.38283 15.8019C6.99401 16.0563 6.6431 16.0755 6.21636 15.8019C4.50779 14.7012 2.99847 13.2988 1.7844 11.6893C0.673587 10.2301 0 8.50855 0 6.65421ZM4.55469 6.86103C4.55469 8.09379 5.56063 9.06336 6.79406 9.06336C8.0283 9.06336 9.04392 8.09379 9.04392 6.86103C9.04392 5.63786 8.0283 4.62109 6.79406 4.62109C5.56063 4.62109 4.55469 5.63786 4.55469 6.86103Z" fill="#3A36DB"/>
</svg>
