<svg width="16" height="15" viewBox="0 0 16 15" fill="none" xmlns="http://www.w3.org/2000/svg">
<path fill-rule="evenodd" clip-rule="evenodd" d="M11.9512 0C13.024 0 14.056 0.441667 14.8152 1.23417C15.5752 2.025 16 3.09167 16 4.20833V10.7917C16 13.1167 14.184 15 11.9512 15H4.048C1.8152 15 0 13.1167 0 10.7917V4.20833C0 1.88333 1.8072 0 4.048 0H11.9512ZM13.2238 5.44962L13.2877 5.38296C13.4789 5.14129 13.4789 4.79129 13.2789 4.54962C13.1677 4.42546 13.0149 4.34962 12.8558 4.33296C12.6877 4.32379 12.5277 4.38296 12.4069 4.49962L8.79975 7.49962C8.33575 7.90046 7.67095 7.90046 7.19975 7.49962L3.59975 4.49962C3.35095 4.30796 3.00695 4.33296 2.79975 4.55796C2.58375 4.78296 2.55975 5.14129 2.74295 5.39129L2.84775 5.49962L6.48775 8.45796C6.93575 8.82462 7.47895 9.02462 8.04775 9.02462C8.61495 9.02462 9.16775 8.82462 9.61495 8.45796L13.2238 5.44962Z" fill="#06152B"/>
</svg>
