<svg width="21" height="21" viewBox="0 0 21 21" fill="none" xmlns="http://www.w3.org/2000/svg">
<path fill-rule="evenodd" clip-rule="evenodd" d="M10.5 21C4.704 21 0 16.3065 0 10.5C0 4.704 4.704 0 10.5 0C16.3065 0 21 4.704 21 10.5C21 16.3065 16.3065 21 10.5 21ZM13.8502 14.3948C13.9762 14.4683 14.1127 14.5103 14.2597 14.5103C14.5222 14.5103 14.7847 14.3738 14.9317 14.1218C15.1522 13.7543 15.0367 13.2713 14.6587 13.0403L10.9207 10.8143V5.96328C10.9207 5.52228 10.5637 5.17578 10.1332 5.17578C9.7027 5.17578 9.3457 5.52228 9.3457 5.96328V11.2658C9.3457 11.5388 9.4927 11.7908 9.7342 11.9378L13.8502 14.3948Z" fill="#3A36DB"/>
</svg>
