<svg width="25" height="14" viewBox="0 0 25 14" fill="none" xmlns="http://www.w3.org/2000/svg">
<path d="M0.796072 13.5052C0.903134 13.6049 1.02867 13.6722 1.16076 13.7076C1.46005 13.7878 1.79272 13.704 2.0185 13.4615L7.96235 7.07587C8.28216 6.73225 8.79771 6.64101 9.2159 6.8541L13.6328 9.10329C14.6264 9.60909 15.8218 9.47551 16.6789 8.76307L22.2674 4.11807L21.8476 8.87214C21.8101 9.29688 22.0862 9.67695 22.4843 9.78358C22.5322 9.79641 22.582 9.80533 22.6331 9.80982C23.1089 9.85185 23.5287 9.50015 23.5708 9.02434L24.1843 2.07712C24.2044 1.84862 24.133 1.62145 23.9856 1.4456C23.8384 1.26972 23.6272 1.15957 23.3987 1.13944L16.7173 0.54945C16.2415 0.507422 15.8216 0.859118 15.7796 1.33493C15.7376 1.8108 16.0894 2.23051 16.5651 2.27262L21.2804 2.68902L15.5732 7.43269C15.248 7.70295 14.7946 7.75369 14.4178 7.56177L10.0009 5.31258C8.89846 4.75115 7.53925 4.99147 6.69616 5.89722L0.752294 12.2829C0.42684 12.6325 0.446401 13.1798 0.796072 13.5052Z" fill="#3A36DB"/>
</svg>
