<svg width="40" height="40" viewBox="0 0 40 40" fill="none" xmlns="http://www.w3.org/2000/svg">
<path fill-rule="evenodd" clip-rule="evenodd" d="M23.7287 12.6149L23.7295 13.2146C25.9332 13.3873 27.3889 14.889 27.3913 17.1918L27.4 23.9324C27.4031 26.4432 25.8258 27.988 23.2974 27.992L17.1215 28C14.609 28.0032 13.0119 26.4216 13.0087 23.9036L13 17.2422C12.9968 14.9241 14.4012 13.4265 16.6049 13.2242L16.6041 12.6245C16.6034 12.2727 16.864 12.008 17.2115 12.008C17.5591 12.0072 17.8197 12.2711 17.8205 12.6229L17.8213 13.1826L22.5131 13.1762L22.5123 12.6165C22.5115 12.2647 22.7722 12.0008 23.1197 12C23.4594 11.9992 23.7279 12.2631 23.7287 12.6149ZM14.2176 17.4899L26.1761 17.4739V17.194C26.1421 15.4749 25.2796 14.5729 23.7315 14.4386L23.7323 15.0543C23.7323 15.3981 23.4645 15.6708 23.1249 15.6708C22.7773 15.6716 22.5159 15.3997 22.5159 15.0559L22.5151 14.4082L17.8233 14.4146L17.8241 15.0615C17.8241 15.4061 17.5642 15.678 17.2167 15.678C16.8692 15.6788 16.6077 15.4077 16.6077 15.0631L16.6069 14.4474C15.0667 14.6017 14.2144 15.5069 14.2168 17.2412L14.2176 17.4899ZM22.793 21.1248V21.1336C22.8009 21.5014 23.101 21.7805 23.4651 21.7725C23.8206 21.7637 24.1041 21.459 24.0962 21.0912C24.0797 20.7394 23.7945 20.4523 23.4399 20.4531C23.0765 20.4611 22.7922 20.757 22.793 21.1248ZM23.4444 24.7136C23.0811 24.7056 22.7881 24.4026 22.7873 24.0348C22.7794 23.667 23.0708 23.3623 23.4342 23.3535H23.4421C23.8133 23.3535 24.1142 23.6566 24.1142 24.0324C24.115 24.4082 23.8149 24.7128 23.4444 24.7136ZM19.5391 21.1377C19.5549 21.5055 19.8558 21.7925 20.2191 21.7766C20.5746 21.7598 20.8581 21.4559 20.8423 21.0881C20.8336 20.7283 20.5414 20.4484 20.186 20.4492C19.8226 20.4652 19.5383 20.7699 19.5391 21.1377ZM20.2211 24.6789C19.8577 24.6949 19.5576 24.4078 19.541 24.04C19.541 23.6722 19.8246 23.3684 20.1879 23.3516C20.5434 23.3508 20.8364 23.6306 20.8443 23.9896C20.8609 24.3583 20.5765 24.6621 20.2211 24.6789ZM16.2852 21.165C16.301 21.5328 16.6019 21.8207 16.9652 21.8039C17.3207 21.7879 17.6042 21.4833 17.5876 21.1154C17.5797 20.7556 17.2875 20.4758 16.9313 20.4766C16.5679 20.4926 16.2844 20.7972 16.2852 21.165ZM16.9672 24.6809C16.6038 24.6976 16.3037 24.4098 16.2871 24.042C16.2863 23.6742 16.5707 23.3695 16.934 23.3535C17.2894 23.3527 17.5825 23.6326 17.5904 23.9924C17.607 24.3602 17.3234 24.6649 16.9672 24.6809Z" fill="#FF69B4"/>
<rect opacity="0.15" width="40" height="40" rx="20" fill="#FF69B4"/>
</svg>
