<svg width="20" height="20" viewBox="0 0 20 20" fill="none" xmlns="http://www.w3.org/2000/svg">
<path d="M9.2301 5.66162V1.6526C9.2301 1.22632 9.5701 0.871094 10.0001 0.871094C10.3851 0.871094 10.7113 1.16959 10.763 1.54767L10.7701 1.6526V5.66162L15.55 5.66192C17.93 5.66192 19.8853 7.61088 19.9951 10.0415L20 10.2572V15.2965C20 17.7441 18.1127 19.7533 15.768 19.8661L15.56 19.8711H4.44C2.06 19.8711 0.11409 17.9319 0.00483778 15.4923L0 15.2758L0 10.2469C0 7.7992 1.87791 5.78031 4.22199 5.66694L4.43 5.66192H9.23V12.0643L7.63 10.4121C7.33 10.1023 6.84 10.1023 6.54 10.4121C6.39 10.567 6.32 10.7735 6.32 10.98C6.32 11.137 6.3648 11.3006 6.45952 11.439L6.54 11.5377L9.45 14.553C9.59 14.7079 9.79 14.7905 10 14.7905C10.1667 14.7905 10.3333 14.7331 10.4653 14.6244L10.54 14.553L13.45 11.5377C13.75 11.2279 13.75 10.7219 13.45 10.4121C13.1773 10.1304 12.7475 10.1048 12.4462 10.3353L12.36 10.4121L10.77 12.0643V5.66192L9.2301 5.66162Z" fill="white"/>
</svg>
