<svg width="178" height="16" viewBox="0 0 178 16" fill="none" xmlns="http://www.w3.org/2000/svg">
<path d="M9.33949 4.45312C9.2732 3.83286 8.99384 3.34991 8.50142 3.00426C8.01373 2.65862 7.37926 2.4858 6.59801 2.4858C6.04877 2.4858 5.57765 2.56866 5.18466 2.73438C4.79167 2.90009 4.491 3.125 4.28267 3.40909C4.07434 3.69318 3.9678 4.01752 3.96307 4.3821C3.96307 4.68513 4.03172 4.94792 4.16903 5.17045C4.31108 5.39299 4.50284 5.58239 4.74432 5.73864C4.9858 5.89015 5.25331 6.01799 5.54688 6.12216C5.84044 6.22633 6.13636 6.31392 6.43466 6.38494L7.7983 6.72585C8.34754 6.85369 8.87547 7.02651 9.3821 7.24432C9.89347 7.46212 10.3504 7.73674 10.7528 8.06818C11.16 8.39962 11.482 8.79972 11.7188 9.26847C11.9555 9.73722 12.0739 10.2865 12.0739 10.9162C12.0739 11.7685 11.8561 12.5189 11.4205 13.1676C10.9848 13.8116 10.3551 14.3158 9.53125 14.6804C8.71212 15.0402 7.72017 15.2202 6.5554 15.2202C5.42377 15.2202 4.44129 15.045 3.60795 14.6946C2.77936 14.3442 2.13068 13.8329 1.66193 13.1605C1.19792 12.4882 0.94697 11.669 0.909091 10.7031H3.50142C3.5393 11.2098 3.69555 11.6312 3.97017 11.9673C4.24479 12.3035 4.60227 12.5545 5.04261 12.7202C5.48769 12.8859 5.98485 12.9688 6.53409 12.9688C7.10701 12.9688 7.6089 12.8835 8.03977 12.7131C8.47538 12.5379 8.81629 12.2964 9.0625 11.9886C9.30871 11.6761 9.43419 11.3116 9.43892 10.8949C9.43419 10.5161 9.32292 10.2036 9.10511 9.95739C8.88731 9.70644 8.58191 9.49811 8.18892 9.33239C7.80066 9.16193 7.34612 9.01042 6.82528 8.87784L5.17045 8.4517C3.97254 8.14394 3.02557 7.67756 2.32955 7.05256C1.63826 6.42282 1.29261 5.58712 1.29261 4.54545C1.29261 3.68845 1.52462 2.93797 1.98864 2.29403C2.45739 1.65009 3.09422 1.15057 3.89915 0.795454C4.70407 0.435605 5.61553 0.255681 6.63352 0.255681C7.66572 0.255681 8.57008 0.435605 9.34659 0.795454C10.1278 1.15057 10.741 1.64536 11.1861 2.27983C11.6312 2.90956 11.8608 3.634 11.875 4.45312H9.33949ZM16.4229 15V0.454545H19.0579V12.7912H25.4641V15H16.4229ZM32.386 0.454545V15H29.7511V0.454545H32.386ZM39.1854 0.454545L42.9709 11.9034H43.12L46.8984 0.454545H49.7962L44.6683 15H41.4155L36.2947 0.454545H39.1854ZM53.8807 15H51.0682L56.1889 0.454545H59.4418L64.5696 15H61.7571L57.8722 3.4375H57.7585L53.8807 15ZM53.973 9.29688H61.6435V11.4134H53.973V9.29688Z" fill="black"/>
<path d="M68.4854 15V0.454545H73.94C75.0574 0.454545 75.9949 0.662878 76.7525 1.07955C77.5148 1.49621 78.0901 2.06913 78.4783 2.7983C78.8713 3.52273 79.0678 4.34659 79.0678 5.26989C79.0678 6.20265 78.8713 7.03125 78.4783 7.75568C78.0853 8.48011 77.5053 9.05066 76.7383 9.46733C75.9712 9.87926 75.0266 10.0852 73.9045 10.0852H70.2894V7.91903H73.5494C74.2028 7.91903 74.7378 7.8054 75.1545 7.57812C75.5711 7.35085 75.8789 7.03835 76.0778 6.64062C76.2814 6.2429 76.3832 5.78598 76.3832 5.26989C76.3832 4.75379 76.2814 4.29924 76.0778 3.90625C75.8789 3.51326 75.5688 3.20786 75.1474 2.99006C74.7307 2.76752 74.1933 2.65625 73.5352 2.65625H71.1204V15H68.4854ZM83.3565 15V0.454545H88.8111C89.9285 0.454545 90.866 0.648674 91.6236 1.03693C92.3859 1.42519 92.9612 1.9697 93.3494 2.67045C93.7424 3.36648 93.9389 4.1785 93.9389 5.10653C93.9389 6.0393 93.7401 6.84896 93.3423 7.53551C92.9493 8.21733 92.3693 8.74526 91.6023 9.11932C90.8352 9.48864 89.893 9.6733 88.7756 9.6733H84.8906V7.4858H88.4205C89.0739 7.4858 89.6089 7.39583 90.0256 7.21591C90.4422 7.03125 90.75 6.76373 90.9489 6.41335C91.1525 6.05824 91.2543 5.62263 91.2543 5.10653C91.2543 4.59044 91.1525 4.15009 90.9489 3.78551C90.7453 3.41619 90.4351 3.13684 90.0185 2.94744C89.6018 2.75331 89.0644 2.65625 88.4062 2.65625H85.9915V15H83.3565ZM90.8707 8.40909L94.4716 15H91.5312L87.9943 8.40909H90.8707ZM111.362 7.72727C111.362 9.29451 111.068 10.6368 110.481 11.7543C109.898 12.867 109.103 13.7192 108.094 14.3111C107.091 14.9029 105.952 15.1989 104.678 15.1989C103.405 15.1989 102.263 14.9029 101.255 14.3111C100.251 13.7145 99.4557 12.8598 98.8686 11.7472C98.2862 10.6297 97.995 9.28977 97.995 7.72727C97.995 6.16004 98.2862 4.82008 98.8686 3.70739C99.4557 2.58996 100.251 1.73532 101.255 1.14347C102.263 0.551609 103.405 0.255681 104.678 0.255681C105.952 0.255681 107.091 0.551609 108.094 1.14347C109.103 1.73532 109.898 2.58996 110.481 3.70739C111.068 4.82008 111.362 6.16004 111.362 7.72727ZM108.712 7.72727C108.712 6.62405 108.54 5.69366 108.194 4.93608C107.853 4.17377 107.379 3.59848 106.773 3.21023C106.167 2.81723 105.469 2.62074 104.678 2.62074C103.888 2.62074 103.189 2.81723 102.583 3.21023C101.977 3.59848 101.501 4.17377 101.156 4.93608C100.815 5.69366 100.644 6.62405 100.644 7.72727C100.644 8.83049 100.815 9.76326 101.156 10.5256C101.501 11.2831 101.977 11.8584 102.583 12.2514C103.189 12.6397 103.888 12.8338 104.678 12.8338C105.469 12.8338 106.167 12.6397 106.773 12.2514C107.379 11.8584 107.853 11.2831 108.194 10.5256C108.54 9.76326 108.712 8.83049 108.712 7.72727ZM114.569 2.66335V0.454545H126.174V2.66335H121.678V15H119.065V2.66335H114.569ZM130.411 15V0.454545H139.871V2.66335H133.046V6.61222H139.381V8.82102H133.046V12.7912H139.928V15H130.411ZM144.56 15V0.454545H147.195V7.13778H147.372L153.047 0.454545H156.264L150.639 6.98153L156.314 15H153.146L148.807 8.7642L147.195 10.6676V15H144.56ZM167.922 4.45312C167.855 3.83286 167.576 3.34991 167.083 3.00426C166.596 2.65862 165.961 2.4858 165.18 2.4858C164.631 2.4858 164.16 2.56866 163.767 2.73438C163.374 2.90009 163.073 3.125 162.865 3.40909C162.656 3.69318 162.55 4.01752 162.545 4.3821C162.545 4.68513 162.614 4.94792 162.751 5.17045C162.893 5.39299 163.085 5.58239 163.326 5.73864C163.568 5.89015 163.835 6.01799 164.129 6.12216C164.422 6.22633 164.718 6.31392 165.017 6.38494L166.38 6.72585C166.93 6.85369 167.458 7.02651 167.964 7.24432C168.475 7.46212 168.932 7.73674 169.335 8.06818C169.742 8.39962 170.064 8.79972 170.301 9.26847C170.538 9.73722 170.656 10.2865 170.656 10.9162C170.656 11.7685 170.438 12.5189 170.002 13.1676C169.567 13.8116 168.937 14.3158 168.113 14.6804C167.294 15.0402 166.302 15.2202 165.137 15.2202C164.006 15.2202 163.023 15.045 162.19 14.6946C161.361 14.3442 160.713 13.8329 160.244 13.1605C159.78 12.4882 159.529 11.669 159.491 10.7031H162.083C162.121 11.2098 162.278 11.6312 162.552 11.9673C162.827 12.3035 163.184 12.5545 163.625 12.7202C164.07 12.8859 164.567 12.9688 165.116 12.9688C165.689 12.9688 166.191 12.8835 166.622 12.7131C167.057 12.5379 167.398 12.2964 167.645 11.9886C167.891 11.6761 168.016 11.3116 168.021 10.8949C168.016 10.5161 167.905 10.2036 167.687 9.95739C167.469 9.70644 167.164 9.49811 166.771 9.33239C166.383 9.16193 165.928 9.01042 165.407 8.87784L163.752 8.4517C162.555 8.14394 161.608 7.67756 160.912 7.05256C160.22 6.42282 159.875 5.58712 159.875 4.54545C159.875 3.68845 160.107 2.93797 160.571 2.29403C161.039 1.65009 161.676 1.15057 162.481 0.795454C163.286 0.435605 164.198 0.255681 165.216 0.255681C166.248 0.255681 167.152 0.435605 167.929 0.795454C168.71 1.15057 169.323 1.64536 169.768 2.27983C170.213 2.90956 170.443 3.634 170.457 4.45312H167.922ZM177.64 0.454545V15H175.005V0.454545H177.64Z" fill="#00B7FF"/>
</svg>
