<svg width="132" height="25" viewBox="0 0 132 25" fill="none" xmlns="http://www.w3.org/2000/svg">
<path d="M12.7322 8.45668C12.647 7.5973 12.2813 6.92969 11.6349 6.45383C10.9886 5.97798 10.1115 5.74006 9.00355 5.74006C8.25071 5.74006 7.61506 5.84659 7.09659 6.05966C6.57813 6.26562 6.1804 6.55327 5.90341 6.92258C5.63352 7.2919 5.49858 7.71094 5.49858 8.17969C5.48438 8.57031 5.56605 8.91122 5.74361 9.20241C5.92827 9.49361 6.1804 9.74574 6.5 9.95881C6.8196 10.1648 7.18892 10.3459 7.60795 10.5021C8.02699 10.6513 8.47443 10.7791 8.95028 10.8857L10.9105 11.3544C11.8622 11.5675 12.7358 11.8516 13.5312 12.2067C14.3267 12.5618 15.0156 12.9986 15.598 13.517C16.1804 14.0355 16.6314 14.6463 16.951 15.3494C17.2777 16.0526 17.4446 16.8587 17.4517 17.7678C17.4446 19.103 17.1037 20.2607 16.429 21.2408C15.7614 22.2138 14.7955 22.9702 13.5312 23.5099C12.2741 24.0426 10.7578 24.3089 8.98224 24.3089C7.22088 24.3089 5.68679 24.0391 4.37997 23.4993C3.08026 22.9595 2.06463 22.1605 1.3331 21.1023C0.608665 20.0369 0.228693 18.7195 0.193182 17.1499H4.65696C4.70668 17.8814 4.91619 18.4922 5.28551 18.9822C5.66193 19.4652 6.16264 19.831 6.78764 20.0795C7.41974 20.321 8.13352 20.4418 8.92898 20.4418C9.71023 20.4418 10.3885 20.3281 10.9638 20.1009C11.5462 19.8736 11.9972 19.5575 12.3168 19.1527C12.6364 18.7479 12.7962 18.2827 12.7962 17.7571C12.7962 17.267 12.6506 16.8551 12.3594 16.5213C12.0753 16.1875 11.6563 15.9034 11.1023 15.669C10.5554 15.4347 9.88423 15.2216 9.08878 15.0298L6.71307 14.4332C4.87358 13.9858 3.42116 13.2862 2.35582 12.3345C1.29048 11.3828 0.761364 10.1009 0.768466 8.48864C0.761364 7.16761 1.11293 6.01349 1.82315 5.02628C2.54048 4.03906 3.52415 3.26847 4.77415 2.71449C6.02415 2.16051 7.4446 1.88352 9.03551 1.88352C10.6548 1.88352 12.0682 2.16051 13.2756 2.71449C14.4901 3.26847 15.4347 4.03906 16.1094 5.02628C16.7841 6.01349 17.1321 7.15696 17.1534 8.45668H12.7322ZM25.0076 2.18182V24H20.4693V2.18182H25.0076ZM28.6431 24V7.63636H33.1815V24H28.6431ZM30.9229 5.52699C30.2482 5.52699 29.6694 5.30327 29.1864 4.85582C28.7106 4.40128 28.4727 3.85795 28.4727 3.22585C28.4727 2.60085 28.7106 2.06463 29.1864 1.61719C29.6694 1.16264 30.2482 0.935368 30.9229 0.935368C31.5977 0.935368 32.1729 1.16264 32.6488 1.61719C33.1317 2.06463 33.3732 2.60085 33.3732 3.22585C33.3732 3.85795 33.1317 4.40128 32.6488 4.85582C32.1729 5.30327 31.5977 5.52699 30.9229 5.52699ZM52.0726 7.63636L46.3517 24H41.2381L35.5172 7.63636H40.3113L43.7097 19.3445H43.8801L47.2679 7.63636H52.0726ZM58.6218 24.3089C57.5778 24.3089 56.6474 24.1278 55.8306 23.7656C55.0138 23.3963 54.3675 22.853 53.8917 22.1357C53.4229 21.4112 53.1886 20.5092 53.1886 19.4297C53.1886 18.5206 53.3555 17.7571 53.6893 17.1392C54.0231 16.5213 54.4776 16.0241 55.0529 15.6477C55.6282 15.2713 56.2816 14.9872 57.0131 14.7955C57.7518 14.6037 58.5259 14.4688 59.3356 14.3906C60.2873 14.2912 61.0543 14.1989 61.6367 14.1136C62.2191 14.0213 62.6417 13.8864 62.9045 13.7088C63.1673 13.5312 63.2987 13.2685 63.2987 12.9205V12.8565C63.2987 12.1818 63.0856 11.6598 62.6594 11.2905C62.2404 10.9212 61.6438 10.7365 60.8697 10.7365C60.0529 10.7365 59.4031 10.9176 58.9201 11.2798C58.4371 11.6349 58.1175 12.0824 57.9613 12.6222L53.7638 12.2812C53.9769 11.2869 54.396 10.4276 55.021 9.70312C55.646 8.97159 56.4521 8.41051 57.4393 8.01989C58.4336 7.62216 59.5842 7.4233 60.891 7.4233C61.8001 7.4233 62.6701 7.52983 63.5011 7.7429C64.3391 7.95597 65.0813 8.28622 65.7276 8.73366C66.381 9.18111 66.896 9.75639 67.2724 10.4595C67.6488 11.1555 67.837 11.9901 67.837 12.9631V24H63.533V21.7308H63.4052C63.1424 22.2422 62.7908 22.6932 62.3505 23.0838C61.9102 23.4673 61.381 23.7692 60.7631 23.9893C60.1452 24.2024 59.4315 24.3089 58.6218 24.3089ZM59.9215 21.1768C60.5891 21.1768 61.1786 21.0455 61.69 20.7827C62.2013 20.5128 62.6026 20.1506 62.8938 19.696C63.185 19.2415 63.3306 18.7266 63.3306 18.1513V16.4148C63.1886 16.5071 62.9933 16.5923 62.7447 16.6705C62.5032 16.7415 62.2298 16.8089 61.9244 16.8729C61.619 16.9297 61.3136 16.983 61.0082 17.0327C60.7028 17.0753 60.4258 17.1143 60.1772 17.1499C59.6445 17.228 59.1793 17.3523 58.7816 17.5227C58.3839 17.6932 58.0749 17.924 57.8548 18.2152C57.6346 18.4993 57.5245 18.8544 57.5245 19.2805C57.5245 19.8984 57.7482 20.3707 58.1957 20.6974C58.6502 21.017 59.2255 21.1768 59.9215 21.1768Z" fill="#1C1C1C"/>
<path d="M84.4723 8.5206C84.5078 7.63281 84.2486 6.94744 83.6946 6.46449C83.1477 5.98153 82.3203 5.74006 81.2124 5.74006C80.4595 5.74006 79.8061 5.84659 79.2521 6.05966C78.6982 6.26562 78.2543 6.55327 77.9205 6.92258C77.5938 7.2848 77.3913 7.70384 77.3132 8.17969C77.2351 8.57031 77.2599 8.91122 77.3878 9.20241C77.5227 9.49361 77.7322 9.74574 78.0163 9.95881C78.3075 10.1648 78.652 10.3459 79.0497 10.5021C79.4474 10.6513 79.87 10.7791 80.3175 10.8857L82.1925 11.3544C83.1087 11.5675 83.9325 11.8516 84.6641 12.2067C85.4027 12.5618 86.0206 12.9986 86.5178 13.517C87.022 14.0355 87.3771 14.6463 87.5831 15.3494C87.7891 16.0526 87.8175 16.8587 87.6683 17.7678C87.4411 19.103 86.9119 20.2607 86.081 21.2408C85.25 22.2138 84.1598 22.9702 82.8104 23.5099C81.4609 24.0426 79.8984 24.3089 78.1229 24.3089C76.3615 24.3089 74.8736 24.0391 73.6591 23.4993C72.4446 22.9595 71.5604 22.1605 71.0064 21.1023C70.4595 20.0369 70.2962 18.7195 70.5163 17.1499H74.9801C74.902 17.8814 75.0085 18.4922 75.2997 18.9822C75.598 19.4652 76.0419 19.831 76.6314 20.0795C77.2209 20.321 77.9134 20.4418 78.7088 20.4418C79.4972 20.4418 80.1967 20.3281 80.8075 20.1009C81.4254 19.8736 81.9261 19.5575 82.3097 19.1527C82.6932 18.7479 82.9276 18.2827 83.0128 17.7571C83.098 17.267 83.0234 16.8551 82.7891 16.5213C82.5547 16.1875 82.1783 15.9034 81.6598 15.669C81.1484 15.4276 80.5128 15.2145 79.7528 15.0298L77.473 14.4332C75.7116 13.9858 74.38 13.2862 73.478 12.3345C72.576 11.3828 72.2528 10.1009 72.5085 8.48864C72.7358 7.16761 73.2862 6.01349 74.1598 5.02628C75.0405 4.03196 76.1484 3.26136 77.4837 2.71449C78.826 2.16051 80.2926 1.88352 81.8835 1.88352C83.5028 1.88352 84.87 2.16406 85.9851 2.72514C87.1001 3.27912 87.9134 4.05327 88.4247 5.04758C88.9361 6.0419 89.0923 7.19957 88.8935 8.5206H84.4723ZM94.2761 24.3089C93.2392 24.3089 92.3407 24.1278 91.5808 23.7656C90.8279 23.3963 90.274 22.8494 89.9189 22.125C89.5637 21.4006 89.475 20.5021 89.6525 19.4297C89.8088 18.5206 90.1035 17.7607 90.5368 17.1499C90.9771 16.532 91.5133 16.0348 92.1454 15.6584C92.7775 15.282 93.4771 14.9943 94.2441 14.7955C95.0183 14.5966 95.8173 14.4616 96.6412 14.3906C97.5929 14.2912 98.367 14.1953 98.9636 14.103C99.5673 14.0107 100.018 13.8793 100.317 13.7088C100.615 13.5312 100.796 13.2685 100.86 12.9205V12.8565C100.966 12.1889 100.842 11.6705 100.487 11.3011C100.139 10.9247 99.5815 10.7365 98.8145 10.7365C98.0048 10.7365 97.3159 10.9141 96.7477 11.2692C96.1866 11.6243 95.7853 12.0753 95.5439 12.6222L91.4103 12.2812C91.7797 11.2869 92.3372 10.4276 93.0829 9.70312C93.8358 8.97159 94.7413 8.41051 95.7995 8.01989C96.8578 7.62216 98.0439 7.4233 99.3578 7.4233C100.267 7.4233 101.116 7.52983 101.904 7.7429C102.699 7.95597 103.385 8.28622 103.96 8.73366C104.542 9.18111 104.961 9.75639 105.217 10.4595C105.48 11.1555 105.533 11.9901 105.377 12.9631L103.534 24H99.2299L99.6135 21.7308H99.4856C99.1376 22.2422 98.7115 22.6932 98.2072 23.0838C97.7029 23.4673 97.1241 23.7692 96.4707 23.9893C95.8173 24.2024 95.0858 24.3089 94.2761 24.3089ZM96.0978 21.1768C96.7583 21.1768 97.3656 21.0455 97.9196 20.7827C98.4806 20.5128 98.9423 20.1506 99.3045 19.696C99.6738 19.2415 99.9082 18.7266 100.008 18.1513L100.285 16.4148C100.143 16.5071 99.9366 16.5888 99.6667 16.6598C99.4039 16.7308 99.1163 16.7983 98.8038 16.8622C98.4984 16.919 98.1895 16.9723 97.877 17.022C97.5645 17.0646 97.2839 17.1072 97.0353 17.1499C96.4885 17.228 95.9984 17.3523 95.5652 17.5227C95.1319 17.6932 94.7804 17.924 94.5105 18.2152C94.2406 18.4993 94.0737 18.8544 94.0098 19.2805C93.9103 19.8984 94.0559 20.3707 94.4466 20.6974C94.8443 21.017 95.3947 21.1768 96.0978 21.1768ZM115.215 2.18182L111.593 24H107.055L110.677 2.18182H115.215ZM122.643 24.3196C120.967 24.3196 119.579 23.9787 118.478 23.2969C117.377 22.608 116.603 21.6349 116.156 20.3778C115.715 19.1136 115.641 17.6186 115.932 15.8928C116.216 14.2095 116.788 12.7322 117.647 11.4609C118.513 10.1896 119.6 9.19886 120.907 8.48864C122.214 7.77841 123.67 7.4233 125.275 7.4233C126.354 7.4233 127.331 7.5973 128.205 7.94531C129.085 8.28622 129.817 8.80469 130.399 9.50071C130.982 10.1896 131.379 11.0526 131.592 12.0895C131.813 13.1264 131.809 14.3409 131.582 15.733L131.379 16.9794H117.572L118.009 14.1669H127.555C127.661 13.5135 127.619 12.9347 127.427 12.4304C127.235 11.9261 126.915 11.532 126.468 11.2479C126.021 10.9567 125.47 10.8111 124.817 10.8111C124.149 10.8111 123.524 10.9744 122.942 11.3011C122.359 11.6278 121.869 12.0575 121.472 12.5902C121.081 13.1158 120.829 13.6875 120.715 14.3054L120.214 17.0966C120.072 17.956 120.101 18.6697 120.3 19.2379C120.506 19.8061 120.861 20.2322 121.365 20.5163C121.869 20.7933 122.509 20.9318 123.283 20.9318C123.787 20.9318 124.259 20.8608 124.7 20.7188C125.147 20.5767 125.545 20.3672 125.893 20.0902C126.241 19.8061 126.525 19.4545 126.745 19.0355L130.889 19.3125C130.506 20.321 129.923 21.2017 129.142 21.9545C128.361 22.7003 127.42 23.2827 126.319 23.7017C125.225 24.1136 124 24.3196 122.643 24.3196Z" fill="#2335D4"/>
</svg>
